PathFileType	4	(X/Y/Z)	C:\Users\chris\Documents\GitHub\baseballds\vids\pitch5_Sports2D\pitch5_Sports2D_m_person03.trc
DataRate	CameraRate	NumFrames	NumMarkers	Units	OrigDataRate	OrigDataStartFrame	OrigNumFrames
30	30	11	22	m	30	93	149
Frame#	Time	Hip			RHip			RKnee			RAnkle			RBigToe			RSmallToe			RHeel			LHip			LKnee			LAnkle			LBigToe			LSmallToe			LHeel			Neck			Head			Nose			RShoulder			RElbow			RWrist			LShoulder			LElbow			LWrist		
		X1	Y1	Z1	X2	Y2	Z2	X3	Y3	Z3	X4	Y4	Z4	X5	Y5	Z5	X6	Y6	Z6	X7	Y7	Z7	X8	Y8	Z8	X9	Y9	Z9	X10	Y10	Z10	X11	Y11	Z11	X12	Y12	Z12	X13	Y13	Z13	X14	Y14	Z14	X15	Y15	Z15	X16	Y16	Z16	X17	Y17	Z17	X18	Y18	Z18	X19	Y19	Z19	X20	Y20	Z20	X21	Y21	Z21	X22	Y22	Z22
93	3.1	3.1703220631522195	1.2998743521273528	0.0	3.167639387409536	1.2988275900812112	0.0	3.1739462935789944	1.2708510455700466	0.0	3.178917522480967	1.240504178492297	0.0	3.1657386867332926	1.2328454558256092	0.0	3.1607236821612497	1.2344762193325987	0.0	3.181682559583883	1.235399272281098	0.0	3.172884614677253	1.298764213931402	0.0	3.170966524239517	1.2706409423219702	0.0	3.176277967712067	1.2403660253497157	0.0	3.161282812997976	1.2341966998627782	0.0	3.166486034701917	1.2355694527197545	0.0	3.182493413109834	1.2383389182843438	0.0	3.165969194493082	1.3438252597021425	0.0	3.161096840012239	1.363782734221494	0.0	3.1575419941943323	1.3503461694988488	0.0	3.1667264426304125	1.3383121912666984	0.0	3.1650790965924562	1.3194477790688997	0.0	3.160760949007808	1.299723282783555	0.0	3.169782109610713	1.3412309231728292	0.0	3.1732360300089097	1.3191734381692846	0.0	3.168124472060281	1.2952505770243392	0.0
94	3.1333333333333333	3.1702250758717305	1.299130336777065	0.0	3.1674983243512913	1.2982544702482317	0.0	3.173955609787948	1.270579552288483	0.0	3.178800061417045	1.2402753785263338	0.0	3.1658159667598587	1.232511598444233	0.0	3.160959644559196	1.2341910835164052	0.0	3.181557684420322	1.2353390864247062	0.0	3.172518060249495	1.298198990127657	0.0	3.1710593143299066	1.2703927950405192	0.0	3.176378942007288	1.2401051555414664	0.0	3.161569490994726	1.2338193409827218	0.0	3.166500621405168	1.2355470512087974	0.0	3.1825097948310748	1.2381986383032708	0.0	3.166046771995558	1.3430518106041631	0.0	3.16097052427083	1.3630003050543524	0.0	3.1575267984141138	1.3496535775415304	0.0	3.1669444609007606	1.337515713143885	0.0	3.1654139113402175	1.3187115673679166	0.0	3.1612343612705023	1.298988094487317	0.0	3.169744524284588	1.3406474888606152	0.0	3.173336350368639	1.3185761017236362	0.0	3.1682225951222023	1.294778899980521	0.0
95	3.1666666666666665	3.1697475418698153	1.2966847229329517	0.0	3.1667983770740498	1.2962147326808484	0.0	3.1735112056662973	1.2693875288548184	0.0	3.1779953146341553	1.2392004590755077	0.0	3.1657719872086214	1.2312555712763553	0.0	3.1615138367859807	1.23305872793952	0.0	3.180657140782323	1.2349113575375443	0.0	3.1713987855828507	1.2962792228853324	0.0	3.171525717662076	1.2692905775481282	0.0	3.1768458413575633	1.2388840626769166	0.0	3.1632794849717305	1.2323455999446415	0.0	3.166492445075357	1.235566829099188	0.0	3.182525651501115	1.237354241909275	0.0	3.166098869950969	1.3404326264765893	0.0	3.1603553450759	1.3604119402920805	0.0	3.157420625898744	1.3473616065579628	0.0	3.1672374487357366	1.3348394863725908	0.0	3.166513634591452	1.3162596130434594	0.0	3.162926752923778	1.2961744265137136	0.0	3.1695129628322185	1.338486807723351	0.0	3.1735759858004875	1.316395365913842	0.0	3.168415704956891	1.2929861310609239	0.0
96	3.2	3.16895674434513	1.293766843594581	0.0	3.165645825712809	1.2935762450834694	0.0	3.1723388797711394	1.2675335015113174	0.0	3.176469963774761	1.2375080376681702	0.0	3.165262761185853	1.229554450293416	0.0	3.161834040519982	1.2314669669522633	0.0	3.178954423281109	1.234107239227822	0.0	3.170220360374974	1.2938867241367997	0.0	3.1723266376592294	1.2675342088590016	0.0	3.1775872494385657	1.236923760638982	0.0	3.1664176816922827	1.2302812934363154	0.0	3.1664025227102637	1.235718555331823	0.0	3.1824925326456186	1.2358355398980398	0.0	3.165909447622376	1.3372294216409024	0.0	3.1594504623696236	1.3574106489744278	0.0	3.1572527682715084	1.3446584659891656	0.0	3.167006115313067	1.3315314330545496	0.0	3.1677264429883323	1.313296085157141	0.0	3.165032954371396	1.2923252998517747	0.0	3.169166891416895	1.3355472428386972	0.0	3.1737273698308304	1.3135132526312112	0.0	3.168447821140372	1.2905291270684862	0.0
97	3.2333333333333334	3.1681562315138962	1.292361917279602	0.0	3.164581572512354	1.2920060501853243	0.0	3.170693439360481	1.2658353292869602	0.0	3.1748114042498585	1.236096196640825	0.0	3.1640863976217393	1.2284498774401045	0.0	3.1613437190885962	1.2303749952417673	0.0	3.177201653015606	1.233293584971661	0.0	3.1699825848089187	1.2925431024125928	0.0	3.173155789502654	1.2657986678174453	0.0	3.178223913680159	1.2351436879884716	0.0	3.1697184942994685	1.2287942188561811	0.0	3.1662745837707096	1.235903879829012	0.0	3.182383030807844	1.2342906893243464	0.0	3.1654774337067626	1.3355939988059389	0.0	3.159005221688621	1.3563232173172834	0.0	3.1571955268563614	1.3434946888035364	0.0	3.1659191255491828	1.3296364385367503	0.0	3.167844663490386	1.311787678896578	0.0	3.165932540530805	1.2898296420617243	0.0	3.169065471765629	1.333406303351218	0.0	3.173532581890477	1.311679573793118	0.0	3.1680689685993686	1.2888930956439268	0.0
98	3.2666666666666666	3.1674307302019136	1.2923256371511003	0.0	3.1639356000101535	1.29166134547645	0.0	3.1692041514999443	1.2645847607525484	0.0	3.1736489432904538	1.2354078156229258	0.0	3.162515165409437	1.2281915543659574	0.0	3.1604495496806333	1.2300490275049922	0.0	3.1761736734173445	1.2327613357797977	0.0	3.1703637635022197	1.292250247651651	0.0	3.173706328851336	1.264327445859796	0.0	3.178511986736427	1.2340593908498985	0.0	3.171554385654687	1.228096984127998	0.0	3.1664923673497993	1.2354787673212995	0.0	3.1822649359451636	1.233210818225588	0.0	3.165162815649968	1.3354431690240962	0.0	3.1593747238175975	1.356869436951179	0.0	3.1573325437111546	1.343672385816934	0.0	3.164629287290396	1.3290418472910095	0.0	3.1668392330397324	1.3115492647515583	0.0	3.165476868658212	1.2893285734094957	0.0	3.169313821371807	1.3321716362769196	0.0	3.1731629466651747	1.3110423748452253	0.0	3.167500010412262	1.2884953149327907	0.0
99	3.3	3.1667262393925943	1.2923211919871023	0.0	3.163604535971341	1.2916026112496402	0.0	3.1682323967069435	1.2637303290881514	0.0	3.1731178180756645	1.2351822846026548	0.0	3.161090057210792	1.2282774509166017	0.0	3.1599603055817598	1.2300409149437936	0.0	3.175931134576383	1.2324408739727928	0.0	3.1702970198016205	1.2920765164374752	0.0	3.1738021839185215	1.2631868627551206	0.0	3.1784838587273887	1.233592239237338	0.0	3.1711490490927643	1.2276184885137984	0.0	3.167556714748362	1.2337301065441302	0.0	3.182226344644478	1.232575114515316	0.0	3.165166990839587	1.3353315672744492	0.0	3.1600203294032183	1.3569490646673716	0.0	3.1574724272365726	1.343673972843059	0.0	3.1639296776707106	1.3285463754231197	0.0	3.16595328252321	1.3111798724100792	0.0	3.1648954674303096	1.2896480337482836	0.0	3.169524879202497	1.3311294957185824	0.0	3.173022702901468	1.3105987366746905	0.0	3.1672863210273867	1.2886769476769682	0.0
100	3.3333333333333335	3.1661654400527355	1.2922732063690996	0.0	3.163306018246966	1.291633901923967	0.0	3.1674896633480203	1.2635789489905387	0.0	3.1727586944282744	1.235227139582405	0.0	3.160145830776544	1.2283031777648044	0.0	3.1598503482917937	1.2301155657454512	0.0	3.175845402428461	1.2323624581361246	0.0	3.169715726384278	1.2919577289473305	0.0	3.1735210724255754	1.2628421145530955	0.0	3.1782158484002148	1.233649159223152	0.0	3.169592289620695	1.2272560466210871	0.0	3.1694169387455178	1.2312655948580917	0.0	3.1821474626222095	1.232392101315044	0.0	3.165207152545765	1.335001339593646	0.0	3.160295192784836	1.3560439495497767	0.0	3.157383372891999	1.343227869696609	0.0	3.163722669525966	1.3281283441968597	0.0	3.1657873854191974	1.3105448937469837	0.0	3.1646820636843054	1.2898088353732153	0.0	3.169469697852002	1.3303623528095676	0.0	3.173010282651406	1.3101295409158242	0.0	3.1675933010569985	1.2888502580793164	0.0
101	3.3666666666666667	3.165761114015765	1.2927650942149158	0.0	3.1628001539634125	1.2920648963850394	0.0	3.166524095266873	1.2642361983531811	0.0	3.1721199694421096	1.2355389109412587	0.0	3.159601191331582	1.2281994331675605	0.0	3.1595268059929555	1.230322537926582	0.0	3.1753527282718212	1.2326919161270835	0.0	3.169223452548333	1.292344784648752	0.0	3.173081607658171	1.2634373036092477	0.0	3.1777087341679215	1.2340967454984773	0.0	3.168686332125274	1.227230625747409	0.0	3.1714705841214914	1.22969403600137	0.0	3.1817714267521393	1.232728767017098	0.0	3.1649598061808115	1.3349002524471525	0.0	3.1601575999768086	1.355230643012156	0.0	3.157051107632192	1.3429740179808434	0.0	3.163486589029878	1.3281961727048037	0.0	3.165628855806208	1.3103009521309574	0.0	3.1643576154640596	1.2896933434447977	0.0	3.1692933143236592	1.330116444397991	0.0	3.1726283447814767	1.3100123871812324	0.0	3.1680094029421237	1.2888585938714492	0.0
102	3.4	3.165246366319139	1.2935131935823891	0.0	3.162074362316058	1.292636895353947	0.0	3.1654539008032074	1.2650354907682546	0.0	3.171387485917063	1.2358447479938497	0.0	3.1590625981085316	1.2280895282083548	0.0	3.1587936338947995	1.2305195968564853	0.0	3.1745953456641867	1.2331195233598748	0.0	3.168860517150199	1.2930002636059525	0.0	3.172549872117654	1.2641971108714098	0.0	3.177036029562777	1.2345080406157223	0.0	3.1685971979656653	1.2273583959789727	0.0	3.1729120029292344	1.2294744606593977	0.0	3.1810991271403526	1.233174864624604	0.0	3.164449022088085	1.3349630753636705	0.0	3.159877966531455	1.3551319152239945	0.0	3.1565954263029012	1.3430721811891926	0.0	3.16307546242355	1.3284843272237	0.0	3.1649404805182395	1.3105160573527925	0.0	3.16379041724453	1.2896123076299792	0.0	3.169065665260706	1.3300666760472977	0.0	3.171846460051953	1.3102461930135116	0.0	3.1681439712565953	1.2888336901121555	0.0
103	3.433333333333333	3.164510824041509	1.2938278113745438	0.0	3.161312420984289	1.2928493195179187	0.0	3.1646806305253166	1.2652848360622448	0.0	3.1708394792107435	1.235836176751181	0.0	3.158243338808949	1.228058932568308	0.0	3.157896294906869	1.2304782080497565	0.0	3.1739525176841767	1.233141047478173	0.0	3.1683236925406426	1.293296545465729	0.0	3.1719029986840503	1.2643786703868036	0.0	3.1763766707741468	1.2345499228666545	0.0	3.168287875511071	1.2273031064779591	0.0	3.1729529973216324	1.2296713841001838	0.0	3.1803781360775596	1.233211395613553	0.0	3.163845245314904	1.3349889139742606	0.0	3.1595318151390037	1.355461065375842	0.0	3.156072899586928	1.3432620457367745	0.0	3.1625573278858408	1.3286049761890806	0.0	3.164100524949568	1.310796412980848	0.0	3.1632987789140383	1.289704953774736	0.0	3.168709143030938	1.3299601180863985	0.0	3.171069248112462	1.310514423303575	0.0	3.1679179288690014	1.2888936933597317	0.0
